<?xml version="1.0" standalone="no"?>
<!DOCTYPE svg PUBLIC "-//W3C//DTD SVG 20010904//EN"
 "http://www.w3.org/TR/2001/REC-SVG-20010904/DTD/svg10.dtd">
<svg version="1.0" xmlns="http://www.w3.org/2000/svg"
 width="129.000000pt" height="144.000000pt" viewBox="0 0 129.000000 144.000000"
 preserveAspectRatio="xMidYMid meet">

<g transform="translate(0.000000,144.000000) scale(0.100000,-0.100000)"
fill="#000000" stroke="none">
<path d="M891 1193 c-22 -55 -103 -255 -122 -298 -17 -40 -39 -98 -39 -101 0
-2 101 -4 225 -4 124 0 225 2 225 4 0 1 -15 32 -34 67 -19 35 -46 87 -60 114
-87 169 -146 270 -158 273 -9 2 -22 -18 -37 -55z"/>
<path d="M68 773 c-10 -2 -18 -7 -18 -9 0 -5 29 -61 155 -299 32 -60 73 -137
90 -170 17 -33 38 -61 46 -63 8 -1 27 9 43 23 16 14 33 25 38 25 4 0 8 5 8 10
0 6 -9 10 -20 10 -24 0 -25 9 -5 35 8 11 54 74 102 140 47 66 98 136 112 155
55 75 91 130 91 140 0 10 -604 13 -642 3z"/>
<path d="M445 319 c-11 -17 0 -20 21 -4 17 13 17 14 2 15 -9 0 -20 -5 -23 -11z"/>
</g>
</svg>
